<svg
   viewBox="0 0 1024 1024"
   id="icon-question-mark"
   xmlns="http://www.w3.org/2000/svg"
   xmlns:svg="http://www.w3.org/2000/svg">
  <path
     d="m 334.22246,308.44491 c 0,-76.23832 61.98413,-138.22245 138.22245,-138.22245 h 69.11123 c 76.23832,0 138.22246,61.98413 138.22246,138.22245 v 7.77502 c 0,47.08202 -23.97296,90.92446 -63.49594,116.19325 l -91.14044,58.52857 c -54.42509,34.98756 -87.25292,95.24391 -87.25292,159.81972 v 3.23958 c 0,38.22715 30.88408,69.11123 69.11123,69.11123 38.22715,0 69.11123,-30.88408 69.11123,-69.11123 v -3.02361 c 0,-17.70975 9.07084,-34.12367 23.75698,-43.62646 L 691.00917,548.8224 C 770.05514,497.85287 818.00105,410.38397 818.00105,316.21993 v -7.77502 C 818.00105,155.75229 694.24876,32 541.55614,32 H 472.44491 C 319.75229,32 196,155.75229 196,308.44491 c 0,38.22715 30.88408,69.11123 69.11123,69.11123 38.22715,0 69.11123,-30.88408 69.11123,-69.11123 z M 507.00053,999.5572 a 86.38904,86.38904 0 1 0 0,-172.77808 86.38904,86.38904 0 1 0 0,172.77808 z"
     style="stroke-width:2.15973" />
</svg>
